<svg width="774" height="300" viewBox="0 0 774 300" fill="none" xmlns="http://www.w3.org/2000/svg">
<path d="M273.822 162.042C273.822 169.634 266.754 175.131 256.806 175.131H233.508V128.01H256.021C265.707 128.01 272.513 133.246 272.513 140.576C272.513 145.55 269.895 148.691 265.969 150.524C270.157 152.094 273.822 156.283 273.822 162.042ZM243.717 136.649V146.859H255.759C259.424 146.859 261.78 144.764 261.78 141.885C261.78 139.005 259.163 136.649 255.759 136.649H243.717ZM256.806 166.492C260.733 166.492 263.613 164.136 263.613 160.733C263.613 157.33 260.995 154.974 256.806 154.974H243.717V166.492H256.806Z" fill="black"/>
<path d="M312.304 174.869L296.074 156.283H293.456V174.869H282.985V128.01H293.456V146.073H296.074L311.78 128.01H324.084L304.451 150.524L325.917 174.869H312.304Z" fill="black"/>
<path d="M325.917 151.571C325.917 137.435 336.388 127.225 351.047 127.225C365.707 127.225 376.178 137.435 376.178 151.571C376.178 165.707 365.707 175.916 351.047 175.916C336.388 175.916 325.917 165.707 325.917 151.571ZM365.184 151.571C365.184 142.67 359.424 136.649 351.047 136.649C342.67 136.649 336.911 142.67 336.911 151.571C336.911 160.471 342.67 166.492 351.047 166.492C359.424 166.492 365.184 160.471 365.184 151.571Z" fill="black"/>
<path d="M416.231 128.01H426.702V174.869H416.231V156.021H395.288V174.869H384.817V128.01H395.288V146.597H416.231V128.01Z" fill="black"/>
<path d="M449.215 174.869V137.435H432.984V128.01H475.655V137.435H459.424V174.869H449.215Z" fill="black"/>
<path d="M520.681 148.691V174.869H513.089L510.995 167.539C508.639 171.466 503.665 175.916 496.073 175.916C486.649 175.916 479.843 169.634 479.843 160.995C479.843 152.356 486.649 146.335 500.524 146.335H510.733C510.21 140.314 507.068 136.126 501.309 136.126C496.597 136.126 493.456 138.744 491.885 141.623L482.461 140.053C484.817 131.937 492.932 127.225 501.833 127.225C513.351 127.225 520.681 135.079 520.681 148.691ZM510.471 154.45H500.785C492.932 154.45 490.314 157.068 490.314 160.471C490.314 164.398 493.456 167.016 498.691 167.016C505.498 167.016 510.471 162.042 510.471 154.45Z" fill="black"/>
<path d="M560.995 174.869L544.765 156.283H542.147V174.869H531.676V128.01H542.147V146.073H544.765L560.472 128.01H572.775L553.142 150.524L574.608 174.869H560.995Z" fill="black"/>
<path d="M593.456 174.869V137.435H577.226V128.01H619.896V137.435H603.665V174.869H593.456Z" fill="black"/>
<path d="M672.252 154.45H634.555C635.602 161.78 640.838 166.492 648.691 166.492C654.189 166.492 658.377 164.136 660.733 160.733L670.419 162.304C667.016 171.204 657.854 175.916 647.906 175.916C633.77 175.916 623.561 165.707 623.561 151.571C623.561 137.435 633.77 127.225 647.906 127.225C662.042 127.225 672.252 137.435 672.252 151.047C672.513 152.356 672.252 153.403 672.252 154.45ZM635.341 146.335H661.257C659.424 140.576 654.712 136.388 648.168 136.388C641.885 136.126 636.911 140.314 635.341 146.335Z" fill="black"/>
<path d="M100 148C100 125.373 100 114.059 107.029 107.029C114.059 100 125.373 100 148 100H152C174.627 100 185.941 100 192.971 107.029C200 114.059 200 125.373 200 148V152C200 174.627 200 185.941 192.971 192.971C185.941 200 174.627 200 152 200H148C125.373 200 114.059 200 107.029 192.971C100 185.941 100 174.627 100 152V148Z" fill="#0077FF"/>
<path d="M153.208 172.042C130.417 172.042 117.417 156.417 116.875 130.417H128.292C128.667 149.5 137.083 157.583 143.75 159.25V130.417H154.5V146.875C161.084 146.167 168 138.667 170.333 130.417H181.083C179.292 140.584 171.792 148.083 166.458 151.167C171.792 153.667 180.334 160.208 183.584 172.042H171.75C169.208 164.125 162.875 158 154.5 157.167V172.042H153.208Z" fill="white"/>
</svg>
